<mxfile host="app.diagrams.net" modified="2022-11-04T09:43:34.240Z" agent="5.0 (X11)" etag="viPJWf7hHrRSd5X2DhlO" version="20.5.1" type="github">
  <diagram id="mKprHUg-56N7Su9LDajx" name="Page-1">
    <mxGraphModel dx="868" dy="6348" grid="1" gridSize="10" guides="1" tooltips="1" connect="1" arrows="1" fold="1" page="1" pageScale="1" pageWidth="800" pageHeight="490" math="0" shadow="0">
      <root>
        <mxCell id="0" />
        <mxCell id="1" parent="0" />
        <mxCell id="N9YfzWyOXAvcYm_wJdD_-1" value="" style="whiteSpace=wrap;html=1;aspect=fixed;gradientColor=#B0D9B1;gradientDirection=east;" vertex="1" parent="1">
          <mxGeometry x="200" y="-5324" width="310" height="310" as="geometry" />
        </mxCell>
        <mxCell id="N9YfzWyOXAvcYm_wJdD_-2" value="" style="rounded=0;whiteSpace=wrap;html=1;gradientColor=#FFFF99;gradientDirection=radial;" vertex="1" parent="1">
          <mxGeometry x="290" y="-5284" width="200" height="250" as="geometry" />
        </mxCell>
        <mxCell id="N9YfzWyOXAvcYm_wJdD_-3" value="" style="rounded=0;whiteSpace=wrap;html=1;gradientColor=#C2C2C2;" vertex="1" parent="1">
          <mxGeometry x="360" y="-5264" width="120" height="220" as="geometry" />
        </mxCell>
        <mxCell id="N9YfzWyOXAvcYm_wJdD_-4" value="" style="whiteSpace=wrap;html=1;aspect=fixed;" vertex="1" parent="1">
          <mxGeometry x="550" y="-5251" width="73" height="73" as="geometry" />
        </mxCell>
        <mxCell id="N9YfzWyOXAvcYm_wJdD_-5" value="" style="ellipse;whiteSpace=wrap;html=1;aspect=fixed;fillColor=#f8cecc;strokeColor=#b85450;gradientColor=none;" vertex="1" parent="1">
          <mxGeometry x="210" y="-5244" width="50" height="50" as="geometry" />
        </mxCell>
        <mxCell id="N9YfzWyOXAvcYm_wJdD_-6" value="" style="ellipse;whiteSpace=wrap;html=1;aspect=fixed;fillColor=#f8cecc;strokeColor=#b85450;" vertex="1" parent="1">
          <mxGeometry x="300" y="-5244" width="50" height="50" as="geometry" />
        </mxCell>
        <mxCell id="N9YfzWyOXAvcYm_wJdD_-7" value="" style="ellipse;whiteSpace=wrap;html=1;aspect=fixed;fillColor=#f8cecc;strokeColor=#b85450;" vertex="1" parent="1">
          <mxGeometry x="100" y="-5244" width="50" height="50" as="geometry" />
        </mxCell>
        <mxCell id="N9YfzWyOXAvcYm_wJdD_-8" value="" style="ellipse;whiteSpace=wrap;html=1;aspect=fixed;fillColor=#f8cecc;strokeColor=#b85450;gradientColor=none;gradientDirection=north;" vertex="1" parent="1">
          <mxGeometry x="395" y="-5244" width="50" height="50" as="geometry" />
        </mxCell>
        <mxCell id="N9YfzWyOXAvcYm_wJdD_-9" value="" style="ellipse;whiteSpace=wrap;html=1;aspect=fixed;fillColor=#f8cecc;strokeColor=#b85450;" vertex="1" parent="1">
          <mxGeometry x="563" y="-5244" width="50" height="50" as="geometry" />
        </mxCell>
        <mxCell id="N9YfzWyOXAvcYm_wJdD_-10" value="" style="ellipse;whiteSpace=wrap;html=1;aspect=fixed;fillColor=#f8cecc;strokeColor=#b85450;" vertex="1" parent="1">
          <mxGeometry x="395" y="-5144" width="50" height="50" as="geometry" />
        </mxCell>
        <mxCell id="N9YfzWyOXAvcYm_wJdD_-11" value="" style="ellipse;whiteSpace=wrap;html=1;aspect=fixed;fillColor=#f8cecc;strokeColor=#b85450;" vertex="1" parent="1">
          <mxGeometry x="563" y="-5124" width="50" height="50" as="geometry" />
        </mxCell>
        <mxCell id="N9YfzWyOXAvcYm_wJdD_-12" value="" style="ellipse;whiteSpace=wrap;html=1;aspect=fixed;fillColor=#f8cecc;strokeColor=#b85450;" vertex="1" parent="1">
          <mxGeometry x="395" y="-4964" width="50" height="50" as="geometry" />
        </mxCell>
        <mxCell id="N9YfzWyOXAvcYm_wJdD_-13" value="" style="ellipse;whiteSpace=wrap;html=1;aspect=fixed;fillColor=#f8cecc;strokeColor=#b85450;" vertex="1" parent="1">
          <mxGeometry x="270" y="-4964" width="50" height="50" as="geometry" />
        </mxCell>
        <mxCell id="N9YfzWyOXAvcYm_wJdD_-14" value="" style="ellipse;whiteSpace=wrap;html=1;aspect=fixed;fillColor=#f8cecc;strokeColor=#b85450;" vertex="1" parent="1">
          <mxGeometry x="395" y="-5379" width="40" height="40" as="geometry" />
        </mxCell>
        <mxCell id="N9YfzWyOXAvcYm_wJdD_-15" value="" style="ellipse;whiteSpace=wrap;html=1;aspect=fixed;fillColor=#f8cecc;strokeColor=#b85450;" vertex="1" parent="1">
          <mxGeometry x="267.5" y="-5379" width="40" height="40" as="geometry" />
        </mxCell>
        <mxCell id="N9YfzWyOXAvcYm_wJdD_-16" value="&lt;font style=&quot;font-size: 24px;&quot;&gt;&lt;br&gt;&lt;br&gt;&lt;br&gt;&lt;/font&gt;	&lt;font style=&quot;font-size: 24px;&quot;&gt;&lt;br&gt;&lt;/font&gt;	&lt;font style=&quot;font-size: 24px;&quot;&gt;&lt;br&gt;&lt;/font&gt;	&lt;font style=&quot;font-size: 24px;&quot;&gt;&lt;br&gt;&lt;/font&gt;	&lt;font style=&quot;font-size: 24px;&quot;&gt;&lt;br&gt;&lt;br&gt;&lt;/font&gt;&lt;p style=&quot;line-height: 100%; margin-bottom: 0in; font-size: 24px;&quot;&gt;&lt;font style=&quot;font-size: 24px;&quot;&gt;&lt;br&gt;&lt;font style=&quot;font-size: 24px;&quot;&gt;&lt;font style=&quot;font-size: 24px;&quot; face=&quot;Liberation Serif, serif&quot;&gt;ϒ&lt;/font&gt;&lt;/font&gt;&lt;/font&gt;&lt;/p&gt;&lt;font style=&quot;font-size: 24px;&quot;&gt;&lt;br&gt;&lt;br&gt;&lt;/font&gt;" style="text;html=1;strokeColor=none;fillColor=none;align=center;verticalAlign=middle;whiteSpace=wrap;rounded=0;fontSize=22;" vertex="1" parent="1">
          <mxGeometry x="202.5" y="-5354" width="65" height="40" as="geometry" />
        </mxCell>
        <mxCell id="N9YfzWyOXAvcYm_wJdD_-17" value="&lt;p style=&quot;line-height: 100%; margin-bottom: 0in; font-size: 24px;&quot;&gt;&lt;font style=&quot;font-size: 24px;&quot;&gt;&lt;br&gt;&lt;font style=&quot;font-size: 24px;&quot;&gt;&lt;font style=&quot;font-size: 24px;&quot; face=&quot;Liberation Serif, serif&quot;&gt;β&lt;/font&gt;&lt;/font&gt;&lt;/font&gt;&lt;/p&gt;&lt;font style=&quot;font-size: 24px;&quot;&gt;&lt;br&gt;&lt;br&gt;&lt;/font&gt;" style="text;html=1;strokeColor=none;fillColor=none;align=center;verticalAlign=middle;whiteSpace=wrap;rounded=0;fontSize=22;" vertex="1" parent="1">
          <mxGeometry x="255" y="-4964" width="80" height="50" as="geometry" />
        </mxCell>
        <mxCell id="N9YfzWyOXAvcYm_wJdD_-18" value="&lt;p style=&quot;line-height: 100%; margin-bottom: 0in; font-size: 25px;&quot;&gt;&lt;font style=&quot;font-size: 25px;&quot;&gt;&lt;br&gt;&lt;font style=&quot;font-size: 25px;&quot;&gt;&lt;font style=&quot;font-size: 25px;&quot; face=&quot;Liberation Serif, serif&quot;&gt;ω&lt;/font&gt;&lt;/font&gt;&lt;/font&gt;&lt;/p&gt;&lt;font style=&quot;font-size: 25px;&quot;&gt;&lt;br&gt;&lt;br&gt;&lt;/font&gt;" style="text;html=1;strokeColor=none;fillColor=none;align=center;verticalAlign=middle;whiteSpace=wrap;rounded=0;fontSize=22;strokeWidth=2;" vertex="1" parent="1">
          <mxGeometry x="390" y="-4954" width="60" height="30" as="geometry" />
        </mxCell>
        <mxCell id="N9YfzWyOXAvcYm_wJdD_-19" value="&lt;p style=&quot;line-height: 100%; margin-bottom: 0in; font-size: 25px;&quot;&gt;&lt;font style=&quot;font-size: 25px;&quot;&gt;&lt;br&gt;&lt;font style=&quot;font-size: 25px;&quot;&gt;&lt;font style=&quot;font-size: 25px;&quot; face=&quot;Liberation Serif, serif&quot;&gt;α&lt;/font&gt;&lt;/font&gt;&lt;/font&gt;&lt;/p&gt;&lt;font style=&quot;font-size: 25px;&quot;&gt;&lt;br&gt;&lt;br&gt;&lt;/font&gt;" style="text;html=1;strokeColor=none;fillColor=none;align=center;verticalAlign=middle;whiteSpace=wrap;rounded=0;strokeWidth=2;fontSize=24;" vertex="1" parent="1">
          <mxGeometry x="558" y="-5114" width="60" height="30" as="geometry" />
        </mxCell>
        <mxCell id="N9YfzWyOXAvcYm_wJdD_-20" value="&lt;p style=&quot;line-height: 100%; margin-bottom: 0in; font-size: 21px;&quot;&gt;&lt;font style=&quot;font-size: 21px;&quot;&gt;&lt;br&gt;&lt;font style=&quot;font-size: 21px;&quot;&gt;&lt;font style=&quot;font-size: 21px;&quot; face=&quot;Liberation Serif, serif&quot;&gt;ζ&lt;/font&gt;&lt;sub&gt;&lt;font style=&quot;font-size: 21px;&quot; face=&quot;Liberation Serif, serif&quot;&gt;b&lt;/font&gt;&lt;/sub&gt;&lt;/font&gt;&lt;/font&gt;&lt;/p&gt;&lt;font style=&quot;font-size: 21px;&quot;&gt;&lt;br&gt;&lt;br&gt;&lt;/font&gt;" style="text;html=1;strokeColor=none;fillColor=none;align=center;verticalAlign=middle;whiteSpace=wrap;rounded=0;strokeWidth=2;fontSize=22;" vertex="1" parent="1">
          <mxGeometry x="385" y="-5369" width="60" height="30" as="geometry" />
        </mxCell>
        <mxCell id="N9YfzWyOXAvcYm_wJdD_-21" value="&lt;p style=&quot;line-height: 100%; margin-bottom: 0in; font-size: 23px;&quot;&gt;&lt;font style=&quot;font-size: 23px;&quot;&gt;&lt;br&gt;&lt;font style=&quot;font-size: 23px;&quot;&gt;&lt;font style=&quot;font-size: 23px;&quot; face=&quot;Liberation Serif, serif&quot;&gt;ζ&lt;/font&gt;&lt;sub&gt;&lt;font style=&quot;font-size: 23px;&quot; face=&quot;Liberation Serif, serif&quot;&gt;k&lt;/font&gt;&lt;/sub&gt;&lt;/font&gt;&lt;/font&gt;&lt;/p&gt;&lt;font style=&quot;font-size: 23px;&quot;&gt;&lt;br&gt;&lt;br&gt;&lt;/font&gt;" style="text;html=1;strokeColor=none;fillColor=none;align=center;verticalAlign=middle;whiteSpace=wrap;rounded=0;strokeWidth=2;fontSize=21;" vertex="1" parent="1">
          <mxGeometry x="558" y="-5234" width="60" height="30" as="geometry" />
        </mxCell>
        <mxCell id="N9YfzWyOXAvcYm_wJdD_-22" value="&lt;p style=&quot;line-height: 100%; margin-bottom: 0in; font-size: 25px;&quot;&gt;&lt;font style=&quot;font-size: 25px;&quot;&gt;&lt;br&gt;&lt;font style=&quot;font-size: 25px;&quot;&gt;&lt;font style=&quot;font-size: 25px;&quot; face=&quot;Liberation Serif, serif&quot;&gt;φ&lt;/font&gt;&lt;/font&gt;&lt;/font&gt;&lt;/p&gt;&lt;font style=&quot;font-size: 25px;&quot;&gt;&lt;br&gt;&lt;br&gt;&lt;/font&gt;" style="text;html=1;strokeColor=none;fillColor=none;align=center;verticalAlign=middle;whiteSpace=wrap;rounded=0;strokeWidth=2;fontSize=23;" vertex="1" parent="1">
          <mxGeometry x="260" y="-5374" width="60" height="30" as="geometry" />
        </mxCell>
        <mxCell id="N9YfzWyOXAvcYm_wJdD_-23" value="&lt;p style=&quot;line-height: 100%; margin-bottom: 0in; font-size: 26px;&quot;&gt;&lt;font style=&quot;font-size: 26px;&quot;&gt;&lt;br&gt;&lt;font style=&quot;font-size: 26px;&quot;&gt;&lt;font style=&quot;font-size: 26px;&quot; face=&quot;Liberation Serif, serif&quot;&gt;λ&lt;/font&gt;&lt;sub&gt;&lt;font style=&quot;font-size: 26px;&quot; face=&quot;Liberation Serif, serif&quot;&gt;a&lt;/font&gt;&lt;/sub&gt;&lt;/font&gt;&lt;/font&gt;&lt;/p&gt;&lt;font style=&quot;font-size: 26px;&quot;&gt;&lt;br&gt;&lt;br&gt;&lt;/font&gt;" style="text;html=1;strokeColor=none;fillColor=none;align=center;verticalAlign=middle;whiteSpace=wrap;rounded=0;strokeWidth=2;fontSize=25;" vertex="1" parent="1">
          <mxGeometry x="100" y="-5224" width="60" height="30" as="geometry" />
        </mxCell>
        <mxCell id="N9YfzWyOXAvcYm_wJdD_-24" value="W" style="text;html=1;strokeColor=none;fillColor=none;align=center;verticalAlign=middle;whiteSpace=wrap;rounded=0;strokeWidth=2;fontSize=26;" vertex="1" parent="1">
          <mxGeometry x="390" y="-5234" width="60" height="30" as="geometry" />
        </mxCell>
        <mxCell id="N9YfzWyOXAvcYm_wJdD_-25" value="Z" style="text;html=1;strokeColor=none;fillColor=none;align=center;verticalAlign=middle;whiteSpace=wrap;rounded=0;strokeWidth=2;fontSize=26;" vertex="1" parent="1">
          <mxGeometry x="295" y="-5234" width="60" height="30" as="geometry" />
        </mxCell>
        <mxCell id="N9YfzWyOXAvcYm_wJdD_-26" value="d" style="text;html=1;strokeColor=none;fillColor=none;align=center;verticalAlign=middle;whiteSpace=wrap;rounded=0;strokeWidth=2;fontSize=26;" vertex="1" parent="1">
          <mxGeometry x="390" y="-5134" width="60" height="30" as="geometry" />
        </mxCell>
        <mxCell id="N9YfzWyOXAvcYm_wJdD_-27" value="&lt;p style=&quot;line-height: 100%; margin-bottom: 0in; font-size: 27px;&quot;&gt;&lt;font style=&quot;font-size: 27px;&quot;&gt;&lt;br&gt;&lt;font style=&quot;font-size: 27px;&quot;&gt;&lt;font style=&quot;font-size: 27px;&quot; face=&quot;Liberation Serif, serif&quot;&gt;Ν&lt;/font&gt;&lt;sub&gt;&lt;font style=&quot;font-size: 27px;&quot; face=&quot;Liberation Serif, serif&quot;&gt;u&lt;/font&gt;&lt;/sub&gt;&lt;/font&gt;&lt;/font&gt;&lt;/p&gt;&lt;font style=&quot;font-size: 27px;&quot;&gt;&lt;br&gt;&lt;br&gt;&lt;/font&gt;" style="text;html=1;strokeColor=none;fillColor=none;align=center;verticalAlign=middle;whiteSpace=wrap;rounded=0;strokeWidth=2;fontSize=26;" vertex="1" parent="1">
          <mxGeometry x="295" y="-5069" width="60" height="30" as="geometry" />
        </mxCell>
        <mxCell id="N9YfzWyOXAvcYm_wJdD_-28" value="&lt;p style=&quot;line-height: 100%; margin-bottom: 0in; font-size: 26px;&quot;&gt;&lt;font style=&quot;font-size: 26px;&quot;&gt;&lt;br&gt;&lt;font style=&quot;font-size: 26px;&quot;&gt;&lt;font style=&quot;font-size: 26px;&quot; face=&quot;Liberation Serif, serif&quot;&gt;Ν&lt;/font&gt;&lt;sub&gt;&lt;font style=&quot;font-size: 26px;&quot; face=&quot;Liberation Serif, serif&quot;&gt;u,s&lt;/font&gt;&lt;/sub&gt;&lt;/font&gt;&lt;/font&gt;&lt;/p&gt;&lt;font style=&quot;font-size: 26px;&quot;&gt;&lt;br&gt;&lt;br&gt;&lt;/font&gt;" style="text;html=1;strokeColor=none;fillColor=none;align=center;verticalAlign=middle;whiteSpace=wrap;rounded=0;strokeWidth=2;fontSize=27;" vertex="1" parent="1">
          <mxGeometry x="430" y="-5064" width="40" height="20" as="geometry" />
        </mxCell>
        <mxCell id="N9YfzWyOXAvcYm_wJdD_-29" value="" style="endArrow=classic;html=1;rounded=0;fontSize=26;entryX=0;entryY=0.5;entryDx=0;entryDy=0;" edge="1" parent="1" target="N9YfzWyOXAvcYm_wJdD_-5">
          <mxGeometry width="50" height="50" relative="1" as="geometry">
            <mxPoint x="150" y="-5219" as="sourcePoint" />
            <mxPoint x="200" y="-5264" as="targetPoint" />
          </mxGeometry>
        </mxCell>
        <mxCell id="N9YfzWyOXAvcYm_wJdD_-30" value="" style="endArrow=classic;html=1;rounded=0;fontSize=26;entryX=0;entryY=0.5;entryDx=0;entryDy=0;exitX=1;exitY=0.5;exitDx=0;exitDy=0;" edge="1" parent="1" source="N9YfzWyOXAvcYm_wJdD_-5" target="N9YfzWyOXAvcYm_wJdD_-25">
          <mxGeometry width="50" height="50" relative="1" as="geometry">
            <mxPoint x="260" y="-5214" as="sourcePoint" />
            <mxPoint x="310" y="-5264" as="targetPoint" />
          </mxGeometry>
        </mxCell>
        <mxCell id="N9YfzWyOXAvcYm_wJdD_-31" value="" style="endArrow=classic;html=1;rounded=0;fontSize=26;" edge="1" parent="1">
          <mxGeometry width="50" height="50" relative="1" as="geometry">
            <mxPoint x="350" y="-5221.5" as="sourcePoint" />
            <mxPoint x="400" y="-5221" as="targetPoint" />
          </mxGeometry>
        </mxCell>
        <mxCell id="N9YfzWyOXAvcYm_wJdD_-32" value="" style="endArrow=classic;html=1;rounded=0;fontSize=26;entryX=0.167;entryY=0.667;entryDx=0;entryDy=0;entryPerimeter=0;" edge="1" parent="1" target="N9YfzWyOXAvcYm_wJdD_-18">
          <mxGeometry width="50" height="50" relative="1" as="geometry">
            <mxPoint x="320" y="-4934" as="sourcePoint" />
            <mxPoint x="370" y="-4984" as="targetPoint" />
          </mxGeometry>
        </mxCell>
        <mxCell id="N9YfzWyOXAvcYm_wJdD_-33" value="" style="endArrow=classic;html=1;rounded=0;fontSize=26;entryX=0.5;entryY=1;entryDx=0;entryDy=0;" edge="1" parent="1" target="N9YfzWyOXAvcYm_wJdD_-10">
          <mxGeometry width="50" height="50" relative="1" as="geometry">
            <mxPoint x="420" y="-4964" as="sourcePoint" />
            <mxPoint x="470" y="-5014" as="targetPoint" />
          </mxGeometry>
        </mxCell>
        <mxCell id="N9YfzWyOXAvcYm_wJdD_-34" value="" style="endArrow=classic;html=1;rounded=0;fontSize=26;entryX=0.5;entryY=1;entryDx=0;entryDy=0;" edge="1" parent="1" target="N9YfzWyOXAvcYm_wJdD_-8">
          <mxGeometry width="50" height="50" relative="1" as="geometry">
            <mxPoint x="420" y="-5144" as="sourcePoint" />
            <mxPoint x="470" y="-5194" as="targetPoint" />
          </mxGeometry>
        </mxCell>
        <mxCell id="N9YfzWyOXAvcYm_wJdD_-35" value="" style="endArrow=classic;html=1;rounded=0;fontSize=26;entryX=0.5;entryY=1;entryDx=0;entryDy=0;" edge="1" parent="1" target="N9YfzWyOXAvcYm_wJdD_-9">
          <mxGeometry width="50" height="50" relative="1" as="geometry">
            <mxPoint x="587.9999999999998" y="-5124" as="sourcePoint" />
            <mxPoint x="588" y="-5184" as="targetPoint" />
          </mxGeometry>
        </mxCell>
        <mxCell id="N9YfzWyOXAvcYm_wJdD_-36" value="" style="endArrow=classic;html=1;rounded=0;fontSize=26;entryX=0.833;entryY=0.333;entryDx=0;entryDy=0;entryPerimeter=0;" edge="1" parent="1">
          <mxGeometry width="50" height="50" relative="1" as="geometry">
            <mxPoint x="562.9999999999998" y="-5224" as="sourcePoint" />
            <mxPoint x="442.98" y="-5224.01" as="targetPoint" />
          </mxGeometry>
        </mxCell>
        <mxCell id="N9YfzWyOXAvcYm_wJdD_-37" value="" style="endArrow=classic;html=1;rounded=0;fontSize=26;entryX=0.25;entryY=0.5;entryDx=0;entryDy=0;entryPerimeter=0;" edge="1" parent="1" target="N9YfzWyOXAvcYm_wJdD_-20">
          <mxGeometry width="50" height="50" relative="1" as="geometry">
            <mxPoint x="307.5" y="-5354" as="sourcePoint" />
            <mxPoint x="357.5" y="-5404" as="targetPoint" />
          </mxGeometry>
        </mxCell>
        <mxCell id="N9YfzWyOXAvcYm_wJdD_-38" value="" style="endArrow=classic;html=1;rounded=0;fontSize=26;exitX=0.5;exitY=1;exitDx=0;exitDy=0;entryX=0.41;entryY=0.009;entryDx=0;entryDy=0;entryPerimeter=0;" edge="1" parent="1" source="N9YfzWyOXAvcYm_wJdD_-20" target="N9YfzWyOXAvcYm_wJdD_-8">
          <mxGeometry width="50" height="50" relative="1" as="geometry">
            <mxPoint x="400" y="-5194" as="sourcePoint" />
            <mxPoint x="450" y="-5244" as="targetPoint" />
          </mxGeometry>
        </mxCell>
        <mxCell id="N9YfzWyOXAvcYm_wJdD_-39" value="S" style="text;html=1;strokeColor=none;fillColor=none;align=center;verticalAlign=middle;whiteSpace=wrap;rounded=0;strokeWidth=2;fontSize=26;" vertex="1" parent="1">
          <mxGeometry x="200" y="-5314" width="60" height="30" as="geometry" />
        </mxCell>
      </root>
    </mxGraphModel>
  </diagram>
</mxfile>
